<?xml version="1.0" encoding="utf-8"?>
<!-- Generator: Adobe Illustrator 24.0.2, SVG Export Plug-In . SVG Version: 6.00 Build 0)  -->
<svg version="1.1" id="Capa_1" xmlns="http://www.w3.org/2000/svg" xmlns:xlink="http://www.w3.org/1999/xlink" x="0px" y="0px"
	 viewBox="0 0 1400 500" style="enable-background:new 0 0 1400 500;" xml:space="preserve">
<style type="text/css">
	.st0{fill:url(#SVGID_1_);}
	.st1{display:none;}
	
		.st2{display:inline;fill:none;stroke:#000000;stroke-width:1.112;stroke-linecap:round;stroke-linejoin:round;stroke-miterlimit:10;}
	
		.st3{display:inline;fill:#FF0001;stroke:#000000;stroke-width:1.112;stroke-linecap:round;stroke-linejoin:round;stroke-miterlimit:10;}
	.st4{display:inline;stroke:#000000;stroke-width:1.112;stroke-linecap:round;stroke-linejoin:round;stroke-miterlimit:10;}
	.st5{fill:none;stroke:#D4D1CD;stroke-width:11.6425;stroke-miterlimit:10;}
	.st6{fill:#D4D1CD;}
	.st7{fill:none;stroke:#000000;stroke-width:1.0187;stroke-linecap:round;stroke-linejoin:round;}
	.st8{fill:#F1E1C0;stroke:#D90001;stroke-width:2.9106;stroke-miterlimit:10;}
	.st9{fill:#D90001;}
	.st10{fill:#E5E5E5;stroke:#E5E5E5;stroke-width:4.2874;stroke-linecap:round;stroke-miterlimit:10;}
	.st11{fill:none;stroke:#000000;stroke-width:3.2156;stroke-linejoin:round;stroke-miterlimit:10;}
	.st12{fill:none;stroke:#000000;stroke-width:3.2156;stroke-linecap:round;stroke-linejoin:round;}
	.st13{fill:none;stroke:#000000;stroke-width:3.2156;stroke-linecap:round;stroke-linejoin:round;stroke-dasharray:8.5975,8.5975;}
	.st14{fill:none;stroke:#000000;stroke-width:3.2156;stroke-linecap:round;stroke-linejoin:round;stroke-dasharray:8.6561,8.6561;}
	.st15{fill:none;stroke:#000000;stroke-width:3.2156;stroke-linecap:round;stroke-linejoin:round;stroke-dasharray:8.6197,8.6197;}
	.st16{fill:none;stroke:#000000;stroke-width:3.2156;stroke-linecap:round;stroke-linejoin:round;stroke-dasharray:8.6307,8.6307;}
	.st17{fill:none;stroke:#000000;stroke-width:3.2156;stroke-linecap:round;stroke-linejoin:round;stroke-dasharray:8.367,8.367;}
	.st18{fill:none;stroke:#000000;stroke-width:3.2156;stroke-linecap:round;stroke-linejoin:round;stroke-dasharray:8.5369,8.5369;}
	.st19{fill:none;stroke:#000000;stroke-width:3.2156;stroke-linecap:round;stroke-linejoin:round;stroke-dasharray:8.8668,8.8668;}
	.st20{fill:none;stroke:#000000;stroke-width:3.2156;stroke-linecap:round;stroke-linejoin:round;stroke-dasharray:8.585,8.585;}
	.st21{fill:none;stroke:#000000;stroke-width:3.2156;stroke-linecap:round;stroke-linejoin:round;stroke-miterlimit:10;}
	.st22{fill:none;stroke:#D90001;stroke-width:3.2156;stroke-linecap:round;stroke-linejoin:round;stroke-miterlimit:10;}
	.st23{fill:#78A9C0;}
	.st24{fill:#E5E5E5;stroke:#E5E5E5;stroke-width:2.0195;stroke-linecap:round;stroke-miterlimit:10;}
	.st25{fill:none;stroke:#000000;stroke-width:1.5146;stroke-linejoin:round;stroke-miterlimit:10;}
	.st26{fill:none;stroke:#000000;stroke-width:1.5146;stroke-linecap:round;stroke-linejoin:round;}
	.st27{fill:none;stroke:#000000;stroke-width:1.5146;stroke-linecap:round;stroke-linejoin:round;stroke-dasharray:4.0496,4.0496;}
	.st28{fill:none;stroke:#000000;stroke-width:1.5146;stroke-linecap:round;stroke-linejoin:round;stroke-dasharray:4.0773,4.0773;}
	.st29{fill:none;stroke:#000000;stroke-width:1.5146;stroke-linecap:round;stroke-linejoin:round;stroke-dasharray:4.0601,4.0601;}
	.st30{fill:none;stroke:#000000;stroke-width:1.5146;stroke-linecap:round;stroke-linejoin:round;stroke-dasharray:4.0653,4.0653;}
	.st31{fill:none;stroke:#000000;stroke-width:1.5146;stroke-linecap:round;stroke-linejoin:round;stroke-dasharray:3.9411,3.9411;}
	.st32{fill:none;stroke:#000000;stroke-width:1.5146;stroke-linecap:round;stroke-linejoin:round;stroke-dasharray:4.0211,4.0211;}
	.st33{fill:none;stroke:#000000;stroke-width:1.5146;stroke-linecap:round;stroke-linejoin:round;stroke-dasharray:4.1765,4.1765;}
	.st34{fill:none;stroke:#000000;stroke-width:1.5146;stroke-linecap:round;stroke-linejoin:round;stroke-dasharray:4.0438,4.0438;}
	.st35{fill:none;stroke:#000000;stroke-width:1.5146;stroke-linecap:round;stroke-linejoin:round;stroke-miterlimit:10;}
	.st36{fill:none;stroke:#D90001;stroke-width:1.5146;stroke-linecap:round;stroke-linejoin:round;stroke-miterlimit:10;}
</style>
<linearGradient id="SVGID_1_" gradientUnits="userSpaceOnUse" x1="564.2143" y1="364.2143" x2="768.9286" y2="364.2143" gradientTransform="matrix(6.123234e-17 -1 1 6.123234e-17 335.7857 1064.2142)">
	<stop  offset="0" style="stop-color:#FFFFFF"/>
	<stop  offset="0.1597" style="stop-color:#E1ECF1"/>
	<stop  offset="0.4271" style="stop-color:#B4CFDC"/>
	<stop  offset="0.6659" style="stop-color:#93BACD"/>
	<stop  offset="0.8651" style="stop-color:#7FAEC3"/>
	<stop  offset="1" style="stop-color:#78A9C0"/>
</linearGradient>
<polygon class="st0" points="1400,295.29 1400,500 0,500 0,295.29 "/>
<g class="st1">
	<path class="st2" d="M673.24,297.01c51.16,11.29,112.25,0.74,112.25,0.74l0.4-1.29c-9.34,1.24-19.39,2.27-30.11,2.96
		c-9.66,0.62-19.85,0.95-30.53,0.9C706.22,300.23,688.78,298.92,673.24,297.01z"/>
	<path class="st2" d="M672.38,295.79c0,0,76.92,5.69,82.32,3.7"/>
	<path class="st2" d="M673.24,297.01c0,0-3.86-5.4-5.89-11.35c35.87,5.23,76.45,6.53,119.62,5.67"/>
	<path class="st2" d="M785.89,296.46c0,0,0.87-3.04,1.43-7.5h2.16c0,0-2.02,5.48,2.27,10.38c4.29,4.91,3.56,4.29,3.56,4.29
		s1.72,2.88,0.92,5.15c-0.8,2.27-4.48,0.74-4.48,0.74s-1.47-0.55-3.13-2.39c-1.66-1.84-4.29-5.61-4.29-5.61"/>
	<polyline class="st2" points="785.49,297.75 784.33,301.52 764.88,300.36 	"/>
	<path class="st2" d="M709.66,288.29c2.29-27.3,12.84-99,22.41-165.42h1.84c-8.19,55.08-16.09,110.19-23.09,165.42"/>
	<path class="st2" d="M735.75,122.87h-1.84H735.75z"/>
	<path class="st2" d="M711.82,268.1l-22.07-0.72l-22.39-0.73c0,0-21.64-123.75,59.66-108.77l-10.32,22.1l-49.34,105.68
		c36.46,2.91,72.58,4.15,108.33,3.55c3.88-0.06,7.76-0.15,11.64-0.26l-51.57-166.09c17.95,61.68,34.07,119.35,39.93,154.45
		l-62.14-1.41l21.07-153.04"/>
	<polyline class="st2" points="716.7,179.98 717.23,187.43 719.09,213.41 689.75,267.38 	"/>
	<line class="st3" x1="713.35" y1="187.14" x2="717.23" y2="187.43"/>
	<line class="st2" x1="667.35" y1="266.65" x2="709.93" y2="285.24"/>
	<path class="st2" d="M710.3,281.57c0,0-27.92,7.06-42.18,2.46"/>
	<polyline class="st2" points="713.54,275.91 713.54,277.87 775.59,278.98 775.68,277.32 775.68,289.22 772.46,281 738.23,280.54 
		737.68,289.17 	"/>
	<circle class="st4" cx="772.29" cy="281.24" r="0.61"/>
	<circle class="st4" cx="738.28" cy="280.58" r="0.61"/>
	<polygon class="st4" points="787.32,288.96 760.28,285.24 760.28,287.1 	"/>
	<path class="st4" d="M732.13,289.05c0,0-2.94-2.1-8.16-2.65c-5.21-0.55-12.77-1.16-12.77-1.16l-0.24,1.91
		c0,0,17.55,0.76,19.51,1.91"/>
	<path class="st4" d="M709.76,287.14l-4.25-0.22l0.12-2.24c0,0,3.27-0.07,4.3,0.9L709.76,287.14z"/>
	<path class="st2" d="M705.53,286.46c-4.4,0.21-8.97,0.32-13.7,0.31c-8.67-0.02-16.85-0.43-24.47-1.1"/>
	<polyline class="st4" points="758.11,202.04 741.82,206.12 742.23,207.67 758.43,203.27 	"/>
	<polyline class="st4" points="767.73,239.59 755.25,242.68 755.67,243.83 768,240.7 	"/>
	
		<rect x="727.59" y="269.1" transform="matrix(-1 -4.488688e-11 4.488688e-11 -1 1479.8971 543.9097)" class="st2" width="24.72" height="5.7"/>
	
		<rect x="692.65" y="276.52" transform="matrix(-0.9934 0.1144 -0.1144 -0.9934 1423.6492 477.0195)" class="st2" width="10.98" height="5.66"/>
	<path class="st2" d="M711.73,281.13c0,0,1.8,0.41,8.01-3.15"/>
	<path class="st2" d="M721.78,286.18c0,0-2.46-5.57-5.13-8.25"/>
	<path class="st2" d="M723.93,278.06c0,0-9.11,4.79-11.87,7.18"/>
	<path class="st2" d="M732.99,302.18l-1.46,24.4c0,0,0.23,2.51-1.67,2.45l-2.81,0.78c0,0-1.1,0.92-2.25-1.24
		c-1.15-2.16-4.82-25.03-4.82-26.42"/>
</g>
</svg>
