<?xml version="1.0" encoding="utf-8"?>
<!-- Generator: Adobe Illustrator 24.0.2, SVG Export Plug-In . SVG Version: 6.00 Build 0)  -->
<svg version="1.1" id="Capa_1" xmlns="http://www.w3.org/2000/svg" xmlns:xlink="http://www.w3.org/1999/xlink" x="0px" y="0px"
	 viewBox="0 0 1400 500" style="enable-background:new 0 0 1400 500;" xml:space="preserve">
<style type="text/css">
	.st0{display:none;fill:url(#SVGID_1_);}
	.st1{display:none;}
	
		.st2{display:inline;fill:none;stroke:#000000;stroke-width:1.112;stroke-linecap:round;stroke-linejoin:round;stroke-miterlimit:10;}
	
		.st3{display:inline;fill:#FF0001;stroke:#000000;stroke-width:1.112;stroke-linecap:round;stroke-linejoin:round;stroke-miterlimit:10;}
	.st4{display:inline;stroke:#000000;stroke-width:1.112;stroke-linecap:round;stroke-linejoin:round;stroke-miterlimit:10;}
	.st5{fill:none;stroke:#D4D1CD;stroke-width:11.6425;stroke-miterlimit:10;}
	.st6{fill:#D4D1CD;}
	.st7{fill:none;stroke:#000000;stroke-width:1.0187;stroke-linecap:round;stroke-linejoin:round;}
	.st8{fill:#F1E1C0;stroke:#D90001;stroke-width:2.9106;stroke-miterlimit:10;}
	.st9{fill:#D90001;}
	.st10{fill:#E5E5E5;stroke:#E5E5E5;stroke-width:4.2874;stroke-linecap:round;stroke-miterlimit:10;}
	.st11{fill:none;stroke:#000000;stroke-width:3.2156;stroke-linejoin:round;stroke-miterlimit:10;}
	.st12{fill:none;stroke:#000000;stroke-width:3.2156;stroke-linecap:round;stroke-linejoin:round;}
	.st13{fill:none;stroke:#000000;stroke-width:3.2156;stroke-linecap:round;stroke-linejoin:round;stroke-dasharray:8.5975,8.5975;}
	.st14{fill:none;stroke:#000000;stroke-width:3.2156;stroke-linecap:round;stroke-linejoin:round;stroke-dasharray:8.6561,8.6561;}
	.st15{fill:none;stroke:#000000;stroke-width:3.2156;stroke-linecap:round;stroke-linejoin:round;stroke-dasharray:8.6197,8.6197;}
	.st16{fill:none;stroke:#000000;stroke-width:3.2156;stroke-linecap:round;stroke-linejoin:round;stroke-dasharray:8.6307,8.6307;}
	.st17{fill:none;stroke:#000000;stroke-width:3.2156;stroke-linecap:round;stroke-linejoin:round;stroke-dasharray:8.367,8.367;}
	.st18{fill:none;stroke:#000000;stroke-width:3.2156;stroke-linecap:round;stroke-linejoin:round;stroke-dasharray:8.5369,8.5369;}
	.st19{fill:none;stroke:#000000;stroke-width:3.2156;stroke-linecap:round;stroke-linejoin:round;stroke-dasharray:8.8668,8.8668;}
	.st20{fill:none;stroke:#000000;stroke-width:3.2156;stroke-linecap:round;stroke-linejoin:round;stroke-dasharray:8.585,8.585;}
	.st21{fill:none;stroke:#000000;stroke-width:3.2156;stroke-linecap:round;stroke-linejoin:round;stroke-miterlimit:10;}
	.st22{fill:none;stroke:#D90001;stroke-width:3.2156;stroke-linecap:round;stroke-linejoin:round;stroke-miterlimit:10;}
	.st23{fill:#78A9C0;}
	.st24{fill:#E5E5E5;stroke:#E5E5E5;stroke-width:2.0195;stroke-linecap:round;stroke-miterlimit:10;}
	.st25{fill:none;stroke:#000000;stroke-width:1.5146;stroke-linejoin:round;stroke-miterlimit:10;}
	.st26{fill:none;stroke:#000000;stroke-width:1.5146;stroke-linecap:round;stroke-linejoin:round;}
	.st27{fill:none;stroke:#000000;stroke-width:1.5146;stroke-linecap:round;stroke-linejoin:round;stroke-dasharray:4.0496,4.0496;}
	.st28{fill:none;stroke:#000000;stroke-width:1.5146;stroke-linecap:round;stroke-linejoin:round;stroke-dasharray:4.0773,4.0773;}
	.st29{fill:none;stroke:#000000;stroke-width:1.5146;stroke-linecap:round;stroke-linejoin:round;stroke-dasharray:4.0601,4.0601;}
	.st30{fill:none;stroke:#000000;stroke-width:1.5146;stroke-linecap:round;stroke-linejoin:round;stroke-dasharray:4.0653,4.0653;}
	.st31{fill:none;stroke:#000000;stroke-width:1.5146;stroke-linecap:round;stroke-linejoin:round;stroke-dasharray:3.9411,3.9411;}
	.st32{fill:none;stroke:#000000;stroke-width:1.5146;stroke-linecap:round;stroke-linejoin:round;stroke-dasharray:4.0211,4.0211;}
	.st33{fill:none;stroke:#000000;stroke-width:1.5146;stroke-linecap:round;stroke-linejoin:round;stroke-dasharray:4.1765,4.1765;}
	.st34{fill:none;stroke:#000000;stroke-width:1.5146;stroke-linecap:round;stroke-linejoin:round;stroke-dasharray:4.0438,4.0438;}
	.st35{fill:none;stroke:#000000;stroke-width:1.5146;stroke-linecap:round;stroke-linejoin:round;stroke-miterlimit:10;}
	.st36{fill:none;stroke:#D90001;stroke-width:1.5146;stroke-linecap:round;stroke-linejoin:round;stroke-miterlimit:10;}
	.st37{fill:none;stroke:#000000;stroke-width:1.9478;stroke-linecap:round;stroke-linejoin:round;stroke-miterlimit:10;}
	.st38{fill:#FF0001;stroke:#000000;stroke-width:1.9478;stroke-linecap:round;stroke-linejoin:round;stroke-miterlimit:10;}
	.st39{stroke:#000000;stroke-width:1.9478;stroke-linecap:round;stroke-linejoin:round;stroke-miterlimit:10;}
</style>
<linearGradient id="SVGID_1_" gradientUnits="userSpaceOnUse" x1="564.2143" y1="364.2143" x2="768.9286" y2="364.2143" gradientTransform="matrix(6.123234e-17 -1 1 6.123234e-17 335.7857 1064.2142)">
	<stop  offset="0" style="stop-color:#FFFFFF"/>
	<stop  offset="0.1597" style="stop-color:#E1ECF1"/>
	<stop  offset="0.4271" style="stop-color:#B4CFDC"/>
	<stop  offset="0.6659" style="stop-color:#93BACD"/>
	<stop  offset="0.8651" style="stop-color:#7FAEC3"/>
	<stop  offset="1" style="stop-color:#78A9C0"/>
</linearGradient>
<polygon class="st0" points="1400,295.29 1400,500 0,500 0,295.29 "/>
<g class="st1">
	<path class="st2" d="M672.24,295.67c50.99,12.02,112.23,2.35,112.23,2.35l0.42-1.28c-9.35,1.11-19.43,2-30.15,2.53
		c-9.67,0.48-19.87,0.67-30.54,0.46C705.17,299.37,687.76,297.81,672.24,295.67z"/>
	<path class="st2" d="M671.4,294.44c0,0,76.83,6.8,82.26,4.89"/>
	<path class="st2" d="M672.24,295.67c0,0-3.79-5.45-5.72-11.43c35.79,5.75,76.35,7.63,119.53,7.4"/>
	<path class="st2" d="M784.89,296.75c0,0,0.92-3.02,1.53-7.48l2.16,0.03c0,0-2.1,5.45,2.12,10.41c4.22,4.97,3.5,4.34,3.5,4.34
		s1.68,2.91,0.85,5.17c-0.83,2.26-4.49,0.67-4.49,0.67s-1.46-0.57-3.09-2.44s-4.21-5.67-4.21-5.67"/>
	<polyline class="st2" points="784.47,298.03 783.25,301.78 763.82,300.34 	"/>
	<path class="st2" d="M708.78,287.48c2.68-27.27,14.27-98.8,24.79-165.08l1.84,0.03c-8.99,54.95-17.67,109.95-25.48,165.07"/>
	<path class="st2" d="M737.25,122.45l-1.84-0.03L737.25,122.45z"/>
	<path class="st2" d="M711.23,267.32l-22.05-1.04l-22.38-1.05c0,0-19.85-124.04,61.22-107.9l-10.64,21.95l-50.86,104.96
		c36.41,3.44,72.51,5.19,108.26,5.12c3.88-0.01,7.76-0.04,11.64-0.09l-49.17-166.82c17.06,61.93,32.34,119.83,37.7,155.01
		l-62.11-2.31l23.27-152.72"/>
	<polyline class="st2" points="717.38,179.28 717.81,186.74 719.29,212.75 689.18,266.28 	"/>
	<line class="st3" x1="713.94" y1="186.39" x2="717.81" y2="186.74"/>
	<line class="st2" x1="666.79" y1="265.23" x2="709.1" y2="284.43"/>
	<path class="st2" d="M709.52,280.77c0,0-28.02,6.65-42.21,1.85"/>
	<polyline class="st2" points="712.84,275.16 712.82,277.12 774.84,279.12 774.95,277.46 774.78,289.36 771.68,281.1 737.46,280.14 
		736.79,288.76 	"/>
	<circle class="st4" cx="771.51" cy="281.34" r="0.61"/>
	<circle class="st4" cx="737.51" cy="280.18" r="0.61"/>
	<polygon class="st4" points="786.42,289.27 759.44,285.15 759.42,287.02 	"/>
	<path class="st4" d="M731.24,288.56c0,0-2.91-2.14-8.12-2.77c-5.21-0.63-12.75-1.35-12.75-1.35l-0.27,1.9
		c0,0,17.54,1.01,19.48,2.19"/>
	<path class="st4" d="M708.9,286.33l-4.25-0.28l0.15-2.24c0,0,3.27-0.02,4.29,0.96L708.9,286.33z"/>
	<path class="st2" d="M704.68,285.59c-4.41,0.14-8.98,0.19-13.71,0.11c-8.67-0.14-16.85-0.67-24.46-1.46"/>
	<polyline class="st4" points="758.47,201.93 742.12,205.78 742.52,207.34 758.78,203.17 	"/>
	<polyline class="st4" points="767.55,239.62 755.03,242.53 755.43,243.69 767.8,240.74 	"/>
	
		<rect x="726.94" y="268.73" transform="matrix(-0.9999 -0.0144 0.0144 -0.9999 1474.616 553.794)" class="st2" width="24.72" height="5.7"/>
	
		<rect x="691.9" y="275.54" transform="matrix(-0.995 0.1 -0.1 -0.995 1419.1366 485.5851)" class="st2" width="10.98" height="5.66"/>
	<path class="st2" d="M710.95,280.35c0,0,1.8,0.44,8.06-3.03"/>
	<path class="st2" d="M720.94,285.54c0,0-2.38-5.61-5.01-8.32"/>
	<path class="st2" d="M723.19,277.45c0,0-9.18,4.65-11.97,7.01"/>
	<path class="st2" d="M731.91,301.7l-1.81,24.37c0,0,0.2,2.52-1.71,2.43l-2.82,0.74c0,0-1.12,0.9-2.24-1.27
		c-1.12-2.18-4.46-25.1-4.43-26.49"/>
</g>
<g>
	<path class="st37" d="M618.01,350.29c89.31,21.06,196.57,4.12,196.57,4.12l0.73-2.25c-16.38,1.94-34.02,3.49-52.8,4.43
		c-16.94,0.84-34.8,1.17-53.49,0.81C675.69,356.76,645.18,354.02,618.01,350.29z"/>
	<path class="st37" d="M616.54,348.12c0,0,134.58,11.91,144.08,8.57"/>
	<path class="st37" d="M618.01,350.29c0,0-6.63-9.55-10.03-20.02c62.69,10.07,133.73,13.37,209.36,12.96"/>
	<path class="st37" d="M815.32,352.16c0,0,1.61-5.3,2.69-13.1l3.79,0.05c0,0-3.68,9.54,3.71,18.24c7.4,8.7,6.12,7.61,6.12,7.61
		s2.94,5.09,1.48,9.05s-7.86,1.18-7.86,1.18s-2.56-1-5.42-4.27c-2.85-3.26-7.38-9.94-7.38-9.94"/>
	<polyline class="st37" points="814.59,354.41 812.45,360.99 778.41,358.46 	"/>
	<path class="st37" d="M682.01,335.93c4.7-47.76,24.99-173.06,43.42-289.15l3.22,0.05c-15.74,96.25-30.95,192.58-44.62,289.13"/>
	<path class="st37" d="M731.88,46.88l-3.22-0.05L731.88,46.88z"/>
	<path class="st37" d="M686.3,300.62l-38.63-1.82l-39.2-1.84c0,0-34.77-217.27,107.23-188.98l-18.63,38.44l-89.09,183.84
		c63.78,6.02,127,9.1,189.63,8.96c6.8-0.01,13.6-0.07,20.39-0.16L731.88,46.88c29.88,108.48,56.65,209.88,66.03,271.51l-108.79-4.04
		l40.77-267.5"/>
	<polyline class="st37" points="697.07,146.42 697.82,159.48 700.42,205.03 647.67,298.8 	"/>
	<line class="st38" x1="691.04" y1="158.87" x2="697.82" y2="159.48"/>
	<line class="st37" x1="608.47" y1="296.96" x2="682.57" y2="330.59"/>
	<path class="st37" d="M683.29,324.17c0,0-49.08,11.65-73.93,3.25"/>
	<polyline class="st37" points="689.13,314.35 689.08,317.79 797.71,321.29 797.91,318.39 797.62,339.23 792.18,324.75 
		732.25,323.08 731.06,338.18 	"/>
	<circle class="st39" cx="791.89" cy="325.17" r="1.07"/>
	<circle class="st39" cx="732.33" cy="323.15" r="1.07"/>
	<polygon class="st39" points="818,339.07 770.75,331.86 770.7,335.12 	"/>
	<path class="st39" d="M721.34,337.83c0,0-5.1-3.75-14.22-4.85c-9.12-1.1-22.33-2.36-22.33-2.36l-0.47,3.34
		c0,0,30.72,1.77,34.13,3.83"/>
	<path class="st39" d="M682.21,333.93l-7.44-0.5l0.27-3.92c0,0,5.73-0.04,7.51,1.69L682.21,333.93z"/>
	<path class="st37" d="M674.83,332.62c-7.72,0.25-15.73,0.33-24.01,0.19c-15.19-0.25-29.5-1.18-42.84-2.55"/>
	<polyline class="st39" points="769.04,186.09 740.41,192.83 741.1,195.56 769.58,188.25 	"/>
	<polyline class="st39" points="784.94,252.11 763.01,257.2 763.71,259.23 785.38,254.06 	"/>
	
		<rect x="713.82" y="303.09" transform="matrix(-0.9999 -0.0144 0.0144 -0.9999 1466.425 626.7455)" class="st37" width="43.3" height="9.99"/>
	
		<rect x="652.45" y="315.03" transform="matrix(-0.995 0.1 -0.1 -0.995 1352.8159 572.1275)" class="st37" width="19.23" height="9.91"/>
	<path class="st37" d="M685.81,323.45c0,0,3.15,0.77,14.11-5.31"/>
	<path class="st37" d="M703.3,332.54c0,0-4.17-9.82-8.77-14.58"/>
	<path class="st37" d="M707.26,318.37c0,0-16.08,8.15-20.97,12.27"/>
	<path class="st37" d="M722.52,360.85l-3.17,42.69c0,0,0.34,4.41-2.99,4.25l-4.93,1.3c0,0-1.96,1.58-3.92-2.23
		c-1.96-3.82-7.8-43.96-7.77-46.4"/>
</g>
</svg>
