<?xml version="1.0" encoding="utf-8"?>
<!-- Generator: Adobe Illustrator 24.0.2, SVG Export Plug-In . SVG Version: 6.00 Build 0)  -->
<svg version="1.1" id="Capa_1" xmlns="http://www.w3.org/2000/svg" xmlns:xlink="http://www.w3.org/1999/xlink" x="0px" y="0px"
	 viewBox="0 0 500 500" style="enable-background:new 0 0 500 500;" xml:space="preserve">
<style type="text/css">
	.st0{display:none;}
	.st1{display:inline;}
	.st2{fill:none;stroke:#000000;stroke-width:3.6977;stroke-linecap:round;stroke-linejoin:round;stroke-miterlimit:10;}
	.st3{fill:none;stroke:#000000;stroke-width:3.6977;stroke-linejoin:round;stroke-miterlimit:10;}
	.st4{fill:none;stroke:#000000;stroke-width:3;stroke-linejoin:round;}
	.st5{fill:none;stroke:#000000;stroke-width:3;stroke-linejoin:round;stroke-dasharray:10.0628,10.0628;}
	
		.st6{display:inline;fill:none;stroke:#000000;stroke-width:3.6977;stroke-linecap:round;stroke-linejoin:round;stroke-miterlimit:10;}
	.st7{fill:none;}
	.st8{fill:#0D0C0D;}
	.st9{font-family:'ArialMT';}
	.st10{font-size:30px;}
	
		.st11{display:inline;fill:#D90001;stroke:#D90001;stroke-width:3.6977;stroke-linecap:round;stroke-linejoin:round;stroke-miterlimit:10;}
	.st12{fill:none;stroke:#000000;stroke-width:3;stroke-linecap:round;stroke-linejoin:round;}
	.st13{fill:none;stroke:#000000;stroke-width:3;stroke-linecap:round;stroke-linejoin:round;stroke-dasharray:9.034,9.034;}
	.st14{fill:none;stroke:#000000;stroke-width:3.9808;stroke-linecap:round;stroke-linejoin:round;stroke-miterlimit:10;}
	.st15{fill:none;stroke:#000000;stroke-width:3;stroke-linecap:round;stroke-linejoin:round;stroke-dasharray:11.0471,11.0471;}
	.st16{fill:none;stroke:#000000;stroke-width:3;stroke-linecap:round;stroke-linejoin:round;stroke-dasharray:10.4232,10.4232;}
	.st17{fill:#D90001;stroke:#D90001;stroke-width:3.6977;stroke-linecap:round;stroke-linejoin:round;stroke-miterlimit:10;}
	.st18{fill:#78A9C0;}
	.st19{fill:none;stroke:#000000;stroke-width:2.0195;stroke-linecap:round;stroke-miterlimit:10;}
	.st20{fill:#FFFFFF;stroke:#000000;stroke-width:1.5146;stroke-linejoin:round;stroke-miterlimit:10;}
	.st21{fill:none;stroke:#000000;stroke-width:1.5146;stroke-linejoin:round;stroke-miterlimit:10;}
	.st22{fill:none;stroke:#000000;stroke-width:1.5146;stroke-linecap:round;stroke-linejoin:round;}
	.st23{fill:none;stroke:#000000;stroke-width:1.5146;stroke-linecap:round;stroke-linejoin:round;stroke-dasharray:4.0496,4.0496;}
	.st24{fill:none;stroke:#000000;stroke-width:1.5146;stroke-linecap:round;stroke-linejoin:round;stroke-dasharray:4.0773,4.0773;}
	.st25{fill:none;stroke:#000000;stroke-width:1.5146;stroke-linecap:round;stroke-linejoin:round;stroke-dasharray:4.0601,4.0601;}
	.st26{fill:none;stroke:#000000;stroke-width:1.5146;stroke-linecap:round;stroke-linejoin:round;stroke-dasharray:4.0653,4.0653;}
	.st27{fill:none;stroke:#000000;stroke-width:1.5146;stroke-linecap:round;stroke-linejoin:round;stroke-dasharray:3.9411,3.9411;}
	.st28{fill:none;stroke:#000000;stroke-width:1.5146;stroke-linecap:round;stroke-linejoin:round;stroke-dasharray:4.0211,4.0211;}
	.st29{fill:none;stroke:#000000;stroke-width:1.5146;stroke-linecap:round;stroke-linejoin:round;stroke-dasharray:4.1765,4.1765;}
	.st30{fill:none;stroke:#000000;stroke-width:1.5146;stroke-linecap:round;stroke-linejoin:round;stroke-dasharray:4.0438,4.0438;}
	.st31{fill:none;stroke:#000000;stroke-width:1.5146;stroke-linecap:round;stroke-linejoin:round;stroke-miterlimit:10;}
	.st32{fill:#FFFFFF;stroke:#FFFFFF;stroke-width:1.5146;stroke-linecap:round;stroke-linejoin:round;stroke-miterlimit:10;}
	.st33{display:none;fill:url(#SVGID_1_);}
	.st34{clip-path:url(#SVGID_3_);}
	.st35{fill:#D90001;stroke:#D90001;stroke-width:0.8344;stroke-linecap:round;stroke-linejoin:round;}
	.st36{fill:none;stroke:#D90001;stroke-width:0.8344;stroke-linecap:round;stroke-linejoin:round;}
	.st37{fill:none;stroke:#000000;stroke-width:0.3894;stroke-linecap:round;stroke-linejoin:round;}
	.st38{fill:#D5D1CD;}
	.st39{fill:#D90001;}
	.st40{display:inline;fill:none;stroke:#D90001;stroke-width:1.9901;stroke-miterlimit:10;}
	.st41{clip-path:url(#SVGID_5_);}
	.st42{fill:#C7C2BD;}
	.st43{fill:none;stroke:#C7C2BD;stroke-width:0.796;stroke-miterlimit:10;}
	.st44{fill:none;stroke:#000000;stroke-width:0.796;stroke-miterlimit:10;}
	.st45{fill:none;stroke:#D90001;stroke-width:1.9901;stroke-miterlimit:10;}
	.st46{fill:none;stroke:#D90001;stroke-width:0.995;stroke-miterlimit:10;}
	.st47{display:inline;fill:#635C57;}
	.st48{fill:none;stroke:#D90001;stroke-width:1.8319;stroke-miterlimit:10;}
	.st49{fill:#E5E5E5;}
	.st50{fill:#FFFFFF;}
	.st51{fill:none;stroke:#D4D1CD;stroke-width:11.4727;stroke-miterlimit:10;}
	.st52{fill:#D4D1CD;}
	.st53{fill:none;stroke:#000000;stroke-width:0.8416;stroke-linecap:round;stroke-linejoin:round;}
	.st54{fill:#D90001;stroke:#D90001;stroke-width:2.4047;stroke-miterlimit:10;}
	.st55{fill:none;stroke:#D90001;stroke-width:2;stroke-miterlimit:10;}
	.st56{fill:none;stroke:#D90001;stroke-width:2.3885;stroke-miterlimit:10;}
	.st57{fill:none;stroke:#D90001;stroke-width:1.7063;stroke-miterlimit:10;}
	.st58{display:none;fill:#78A9C0;}
	.st59{display:inline;fill:url(#SVGID_6_);}
	.st60{clip-path:url(#SVGID_8_);}
	.st61{fill:#D90001;stroke:#D90001;stroke-width:1.338;stroke-linecap:round;stroke-linejoin:round;}
	.st62{fill:none;stroke:#D90001;stroke-width:1.338;stroke-linecap:round;stroke-linejoin:round;}
	.st63{fill:none;stroke:#000000;stroke-width:1.2088;stroke-linecap:round;stroke-linejoin:round;}
	.st64{fill:none;stroke:#000000;stroke-width:0.6244;stroke-linecap:round;stroke-linejoin:round;}
	.st65{fill:none;stroke:#000000;stroke-width:1.1961;stroke-linecap:round;stroke-linejoin:round;}
	
		.st66{display:inline;fill:none;stroke:#000000;stroke-width:2.0558;stroke-linecap:round;stroke-linejoin:round;stroke-miterlimit:10;}
	.st67{display:inline;stroke:#000000;stroke-width:2.0558;stroke-linecap:round;stroke-linejoin:round;stroke-miterlimit:10;}
	
		.st68{display:inline;fill:none;stroke:#000000;stroke-width:2.0557;stroke-linecap:round;stroke-linejoin:round;stroke-miterlimit:9.9997;}
	.st69{fill:none;stroke:#000000;stroke-width:1.883;stroke-linecap:round;stroke-linejoin:round;stroke-miterlimit:10;}
	.st70{fill:#FF0001;stroke:#000000;stroke-width:1.883;stroke-linecap:round;stroke-linejoin:round;stroke-miterlimit:10;}
	.st71{stroke:#000000;stroke-width:1.883;stroke-linecap:round;stroke-linejoin:round;stroke-miterlimit:10;}
	.st72{fill:none;stroke:#D90001;stroke-width:1.883;stroke-miterlimit:10;}
	.st73{stroke:#000000;stroke-width:0.75;stroke-linecap:round;stroke-linejoin:round;stroke-miterlimit:10;}
	.st74{fill:#D90001;stroke:#D90001;stroke-width:0.6154;stroke-linecap:round;stroke-linejoin:round;}
	.st75{fill:none;stroke:#D90001;stroke-width:0.6154;stroke-linecap:round;stroke-linejoin:round;}
	.st76{fill:#D90001;stroke:#D90001;stroke-width:1.8936;stroke-linecap:round;stroke-linejoin:round;}
	.st77{fill:none;stroke:#D90001;stroke-width:1.8936;stroke-linecap:round;stroke-linejoin:round;}
</style>
<g class="st0">
	<g class="st1">
		<path class="st2" d="M168.54,138.22l9.5,0.68l14.27,1.03l16.55-0.46l44.69-1.25l-0.88,7.23c0,0-7.86,2.66-16.8,2.66
			s-57.81,2.28-60.48,0S168.54,138.22,168.54,138.22z"/>
		<polyline class="st2" points="175.2,44.09 178.8,138.96 182.64,139.24 178.05,44.09 175.2,44.09 		"/>
		<path class="st2" d="M178.05,44.09c0,0,44.12,15.02,56.29,72.08c0,0,1.71,7.8,3.23,16.55c0,0-34.57,5.52-54.94,3.04"/>
		<polyline class="st2" points="253.55,138.22 249.46,134.04 226.23,134.24 		"/>
		<path class="st2" d="M253.55,139.27h2.76l4.56,13.79c0,0-0.67,4.66-4.47,1.62c-3.8-3.04-4.81-8.89-4.81-8.89"/>
	</g>
	<g class="st1">
		<polygon class="st3" points="292.1,381.14 289.64,281.91 286.64,281.91 289.37,383.96 		"/>
		<path class="st3" d="M286.71,284.37c-11.29,20.18-23.1,46.06-31.47,77.31c-3.64,13.6-6.16,26.48-7.89,38.38
			c13.95-7.64,27.89-15.28,41.84-22.92"/>
		<path class="st3" d="M248.44,419.11l2.46,1.14c0,0-1.36,5.59-1.23,10.78l-2.32,1.91v-12.28L248.44,419.11z"/>
		<path class="st3" d="M247.35,420.66c-1.13-0.46-2.81-1.28-4.49-2.78c-0.9-0.81-1.36-1.22-1.52-1.86c-0.58-2.33,3.32-5.24,4.33-6
			c4.94-3.72,16.22-13.21,31.71-26.41"/>
		<path class="st3" d="M250.5,422.17c0.74,0.48,1.61,0.97,2.61,1.41c1.34,0.6,2.86,1.3,4.75,1.39c0,0,1.44,0.07,3.05-0.39
			c9.62-2.75,35.84-26.15,35.84-26.15c0.35-0.31,1.58-1.4,3.15-2.99c1.16-1.17,2.23-2.35,3.38-3.68c3.29-3.8,6.63-8.54,6.84-12.3
			c0.41-7.5,0.41-7.5,0.41-7.5c-6.14,0.73-12.28,1.46-18.42,2.18"/>
		<path class="st3" d="M310.52,375.23c-2.4,4.23-5.61,9.1-9.89,14.12c-5.82,6.83-11.78,11.78-16.68,15.25
			c-9.36,7.1-16.43,12.13-19.13,14.02c-0.71,0.49-1.84,1.27-3.29,1.68c-0.71,0.2-1.49,0.31-2.33,0.27
			c-0.37-0.02-0.71-0.07-1.02-0.13c-0.69-0.14-1.21-0.36-1.53-0.5c-1.81-0.78-4.18-1.88-6.46-2.97c-3.71-1.77-7.18-3.51-7.7-3.76"/>
		<path class="st3" d="M250.18,411.76c2.8,1.43,5.59,2.87,8.39,4.3c10.06-7.47,20.12-14.94,30.18-22.41
			c-0.14-0.05-12.15-4.6-12.18-4.6C267.78,396.62,258.98,404.19,250.18,411.76z"/>
		<polyline class="st3" points="280.51,390.53 276.5,393.55 280.51,395.18 284.79,392.15 		"/>
		<line class="st3" x1="285.79" y1="396" x2="281.81" y2="394.26"/>
		<line class="st3" x1="277.94" y1="392.46" x2="274.46" y2="390.87"/>
		<line class="st3" x1="277.56" y1="393.98" x2="253.71" y2="413.57"/>
	</g>
	<g class="st1">
		<g>
			<path class="st4" d="M277.94,134.04c0,0,1.78-0.14,4.92-0.35"/>
			<path class="st5" d="M292.9,133.05c26.08-1.56,79.18-3.93,101.08,0.99c29.58,6.64,60.22,41.09,43.32,77.43
				c-14.22,30.57-81.56,115.16-102.55,141.22"/>
			<path class="st4" d="M331.58,356.61c-2,2.47-3.11,3.83-3.11,3.83"/>
		</g>
	</g>
	<path class="st6" d="M285.67,123.95l-10.54,10.54c4.52,3.22,9.03,6.43,13.55,9.65"/>
	<g class="st1">
		<rect x="178.15" y="185.31" class="st7" width="118.85" height="41.89"/>
		<text transform="matrix(1 0 0 1 178.1506 206.7958)" class="st8 st9 st10">Viento</text>
	</g>
	<path class="st11" d="M255.89,214.58c0.48,11.18,0.95,22.36,1.43,33.54c6.06-0.04,12.13-0.07,18.19-0.11
		c-8.34,10.13-16.68,20.25-25.02,30.38c-8.94-9.55-17.88-19.11-26.82-28.66c5.23-0.09,10.46-0.18,15.7-0.26
		c-0.73-11.72-1.46-23.44-2.19-35.17C243.42,214.39,249.66,214.49,255.89,214.58z"/>
	<path class="st11" d="M192.37,214.58c0.48,11.18,0.95,22.36,1.43,33.54c6.06-0.04,12.13-0.07,18.19-0.11
		c-8.34,10.13-16.68,20.25-25.02,30.38c-8.94-9.55-17.88-19.11-26.82-28.66c5.23-0.09,10.46-0.18,15.7-0.26
		c-0.73-11.72-1.46-23.44-2.19-35.17C179.9,214.39,186.14,214.49,192.37,214.58z"/>
	<path class="st6" d="M77.83,134.44l-10.54,10.54c4.52,3.22,9.03,6.43,13.55,9.65"/>
	<g class="st1">
		<g>
			<line class="st12" x1="162.61" y1="142.82" x2="157.68" y2="142.91"/>
			<line class="st13" x1="148.65" y1="143.08" x2="80.9" y2="144.35"/>
			<line class="st12" x1="76.39" y1="144.44" x2="71.46" y2="144.53"/>
		</g>
	</g>
</g>
<g>
	<g>
		<path class="st14" d="M251.6,397.87l-10.23,0.74l-15.36,1.11l-17.82-0.5l-48.11-1.34l0.95,7.78c0,0,8.47,2.87,18.09,2.87
			c9.62,0,62.24,2.46,65.11,0C247.09,406.06,251.6,397.87,251.6,397.87z"/>
		<polyline class="st14" points="244.43,296.53 240.55,398.67 236.42,398.96 241.36,296.53 244.43,296.53 		"/>
		<path class="st14" d="M241.36,296.53c0,0-47.5,16.17-60.6,77.59c0,0-1.84,8.39-3.48,17.81c0,0,37.21,5.94,59.14,3.28"/>
		<polyline class="st14" points="160.08,397.87 164.48,393.37 189.49,393.59 		"/>
		<path class="st14" d="M160.08,399h-2.97l-4.91,14.84c0,0,0.72,5.02,4.81,1.74c4.09-3.28,5.18-9.57,5.18-9.57"/>
	</g>
	<g>
		<g>
			<path class="st12" d="M263.19,403.74c1.77-0.02,3.54-0.04,5.31-0.06"/>
			<path class="st15" d="M279.54,403.54c42.34-0.5,84.69-1.01,127.03-1.51"/>
			<path class="st12" d="M412.1,401.97c1.77-0.02,3.54-0.04,5.31-0.06"/>
		</g>
	</g>
	<g>
		<g>
			<path class="st12" d="M293.89,138.35c-1.68-0.25-3.44-0.5-5.25-0.75"/>
			<path class="st16" d="M278.29,136.41c-21.04-2.08-48.61-2.62-80.08,2.67c-35.41,5.94-65.3,10.96-93.21,34.39
				C52.06,217.9,54.69,287.93,54.86,291.11c0.71,13.25,3.36,62.6,42.27,91.97c11.08,8.36,22.41,13.08,31.71,15.81"/>
			<path class="st12" d="M133.89,400.23c1.86,0.45,3.59,0.82,5.19,1.12"/>
		</g>
	</g>
	<g>
		<polygon class="st14" points="322.76,143.01 332.15,23.06 338.97,23.06 328.31,143.01 		"/>
		<path class="st14" d="M338.97,27.32c0,0,41.58,79.76,47.13,124.54c0,0-44.45-2.55-57.52-11.94"/>
		<path class="st14" d="M322.76,133.52L304,136.08c0,0-4.27,3.61,12.16,12.89c16.42,9.29,39.45,10.57,39.45,10.57l40.09,1.85
			l4.83-6.97v-8.25c0,0-6.11,7.96-6.11,8.39c0,0.43-54.18,6.65-72.51-5.54c-18.33-12.2-18.33-12.2-18.33-12.2"/>
		<polyline class="st14" points="338.97,144.58 335.84,148.88 358.02,153.85 363.01,149.52 		"/>
		<line class="st14" x1="384.64" y1="143.01" x2="400.53" y2="146.18"/>
		<path class="st14" d="M401.67,153.85c0.71,4.12,1.14,9.95,1.14,9.95l-4.27,1.85l-1.14-11.8H401.67z"/>
	</g>
	<g>
		<rect x="185.01" y="187.42" class="st7" width="118.85" height="41.89"/>
		<text transform="matrix(1 0 0 1 185.008 208.9027)" class="st8 st9 st10">Viento</text>
	</g>
	<path class="st17" d="M271.75,216.69c0.48,11.18,0.95,22.36,1.43,33.54c6.06-0.04,12.13-0.07,18.19-0.11
		c-8.34,10.13-16.68,20.25-25.02,30.38c-8.94-9.55-17.88-19.11-26.82-28.66c5.23-0.09,10.46-0.18,15.7-0.26
		c-0.73-11.72-1.46-23.44-2.19-35.17C259.27,216.5,265.51,216.59,271.75,216.69z"/>
	<path class="st17" d="M208.23,216.69c0.48,11.18,0.95,22.36,1.43,33.54c6.06-0.04,12.13-0.07,18.19-0.11
		c-8.34,10.13-16.68,20.25-25.02,30.38c-8.94-9.55-17.88-19.11-26.82-28.66c5.23-0.09,10.46-0.18,15.7-0.26
		c-0.73-11.72-1.46-23.44-2.19-35.17C195.76,216.5,201.99,216.59,208.23,216.69z"/>
	<path class="st2" d="M128.48,409.08l13.2-6.92c-3.36-4.42-6.71-8.83-10.07-13.25"/>
	<path class="st2" d="M407.86,411.56l12.07-8.74c-3.95-3.89-7.9-7.78-11.86-11.67"/>
</g>
</svg>
