<?xml version="1.0" encoding="utf-8"?>
<!-- Generator: Adobe Illustrator 24.0.2, SVG Export Plug-In . SVG Version: 6.00 Build 0)  -->
<svg version="1.1" id="Capa_1" xmlns="http://www.w3.org/2000/svg" xmlns:xlink="http://www.w3.org/1999/xlink" x="0px" y="0px"
	 viewBox="0 0 700 250" style="enable-background:new 0 0 700 250;" xml:space="preserve">
<style type="text/css">
	.st0{fill:url(#SVGID_1_);}
	.st1{display:none;}
	
		.st2{display:inline;fill:none;stroke:#000000;stroke-width:1.112;stroke-linecap:round;stroke-linejoin:round;stroke-miterlimit:10;}
	
		.st3{display:inline;fill:#FF0001;stroke:#000000;stroke-width:1.112;stroke-linecap:round;stroke-linejoin:round;stroke-miterlimit:10;}
	.st4{display:inline;stroke:#000000;stroke-width:1.112;stroke-linecap:round;stroke-linejoin:round;stroke-miterlimit:10;}
	.st5{fill:none;stroke:#D4D1CD;stroke-width:11.6425;stroke-miterlimit:10;}
	.st6{fill:#D4D1CD;}
	.st7{fill:none;stroke:#000000;stroke-width:1.0187;stroke-linecap:round;stroke-linejoin:round;}
	.st8{fill:#F1E1C0;stroke:#D90001;stroke-width:2.9106;stroke-miterlimit:10;}
	.st9{fill:#D90001;}
	.st10{display:inline;}
	.st11{fill:#E5E5E5;stroke:#E5E5E5;stroke-width:4.2874;stroke-linecap:round;stroke-miterlimit:10;}
	.st12{fill:none;stroke:#000000;stroke-width:3.2156;stroke-linejoin:round;stroke-miterlimit:10;}
	.st13{fill:none;stroke:#000000;stroke-width:3.2156;stroke-linecap:round;stroke-linejoin:round;}
	.st14{fill:none;stroke:#000000;stroke-width:3.2156;stroke-linecap:round;stroke-linejoin:round;stroke-dasharray:8.5975,8.5975;}
	.st15{fill:none;stroke:#000000;stroke-width:3.2156;stroke-linecap:round;stroke-linejoin:round;stroke-dasharray:8.6561,8.6561;}
	.st16{fill:none;stroke:#000000;stroke-width:3.2156;stroke-linecap:round;stroke-linejoin:round;stroke-dasharray:8.6197,8.6197;}
	.st17{fill:none;stroke:#000000;stroke-width:3.2156;stroke-linecap:round;stroke-linejoin:round;stroke-dasharray:8.6307,8.6307;}
	.st18{fill:none;stroke:#000000;stroke-width:3.2156;stroke-linecap:round;stroke-linejoin:round;stroke-dasharray:8.367,8.367;}
	.st19{fill:none;stroke:#000000;stroke-width:3.2156;stroke-linecap:round;stroke-linejoin:round;stroke-dasharray:8.5369,8.5369;}
	.st20{fill:none;stroke:#000000;stroke-width:3.2156;stroke-linecap:round;stroke-linejoin:round;stroke-dasharray:8.8668,8.8668;}
	.st21{fill:none;stroke:#000000;stroke-width:3.2156;stroke-linecap:round;stroke-linejoin:round;stroke-dasharray:8.585,8.585;}
	
		.st22{display:inline;fill:none;stroke:#000000;stroke-width:3.2156;stroke-linecap:round;stroke-linejoin:round;stroke-miterlimit:10;}
	.st23{display:inline;fill:none;stroke:#000000;stroke-width:3.2156;stroke-linecap:round;stroke-linejoin:round;}
	
		.st24{display:inline;fill:none;stroke:#D90001;stroke-width:3.2156;stroke-linecap:round;stroke-linejoin:round;stroke-miterlimit:10;}
	.st25{display:none;fill:#78A9C0;}
	.st26{fill:#E5E5E5;stroke:#E5E5E5;stroke-width:2.0195;stroke-linecap:round;stroke-miterlimit:10;}
	.st27{fill:none;stroke:#000000;stroke-width:1.5146;stroke-linejoin:round;stroke-miterlimit:10;}
	.st28{fill:none;stroke:#000000;stroke-width:1.5146;stroke-linecap:round;stroke-linejoin:round;}
	.st29{fill:none;stroke:#000000;stroke-width:1.5146;stroke-linecap:round;stroke-linejoin:round;stroke-dasharray:4.0496,4.0496;}
	.st30{fill:none;stroke:#000000;stroke-width:1.5146;stroke-linecap:round;stroke-linejoin:round;stroke-dasharray:4.0773,4.0773;}
	.st31{fill:none;stroke:#000000;stroke-width:1.5146;stroke-linecap:round;stroke-linejoin:round;stroke-dasharray:4.0601,4.0601;}
	.st32{fill:none;stroke:#000000;stroke-width:1.5146;stroke-linecap:round;stroke-linejoin:round;stroke-dasharray:4.0653,4.0653;}
	.st33{fill:none;stroke:#000000;stroke-width:1.5146;stroke-linecap:round;stroke-linejoin:round;stroke-dasharray:3.9411,3.9411;}
	.st34{fill:none;stroke:#000000;stroke-width:1.5146;stroke-linecap:round;stroke-linejoin:round;stroke-dasharray:4.0211,4.0211;}
	.st35{fill:none;stroke:#000000;stroke-width:1.5146;stroke-linecap:round;stroke-linejoin:round;stroke-dasharray:4.1765,4.1765;}
	.st36{fill:none;stroke:#000000;stroke-width:1.5146;stroke-linecap:round;stroke-linejoin:round;stroke-dasharray:4.0438,4.0438;}
	
		.st37{display:inline;fill:none;stroke:#000000;stroke-width:1.5146;stroke-linecap:round;stroke-linejoin:round;stroke-miterlimit:10;}
	.st38{display:inline;fill:none;stroke:#000000;stroke-width:1.5146;stroke-linecap:round;stroke-linejoin:round;}
	
		.st39{display:inline;fill:none;stroke:#D90001;stroke-width:1.5146;stroke-linecap:round;stroke-linejoin:round;stroke-miterlimit:10;}
	
		.st40{display:inline;fill:none;stroke:#000000;stroke-width:1.9478;stroke-linecap:round;stroke-linejoin:round;stroke-miterlimit:10;}
	
		.st41{display:inline;fill:#FF0001;stroke:#000000;stroke-width:1.9478;stroke-linecap:round;stroke-linejoin:round;stroke-miterlimit:10;}
	.st42{display:inline;stroke:#000000;stroke-width:1.9478;stroke-linecap:round;stroke-linejoin:round;stroke-miterlimit:10;}
	.st43{fill:none;stroke:#000000;stroke-width:2.0558;stroke-linecap:round;stroke-linejoin:round;stroke-miterlimit:10;}
	.st44{stroke:#000000;stroke-width:2.0558;stroke-linecap:round;stroke-linejoin:round;stroke-miterlimit:10;}
	.st45{fill:#FF0001;stroke:#000000;stroke-width:2.0558;stroke-linecap:round;stroke-linejoin:round;stroke-miterlimit:10;}
	.st46{fill:url(#SVGID_2_);}
	.st47{clip-path:url(#SVGID_4_);}
	.st48{fill:#D90001;stroke:#D90001;stroke-width:0.75;stroke-linecap:round;stroke-linejoin:round;}
	.st49{fill:none;stroke:#000000;stroke-width:0.35;stroke-linecap:round;stroke-linejoin:round;}
	.st50{fill:url(#SVGID_7_);}
	.st51{fill:none;stroke:#000000;stroke-width:0.75;stroke-linecap:round;stroke-linejoin:round;stroke-miterlimit:10;}
	.st52{stroke:#000000;stroke-width:0.75;stroke-linecap:round;stroke-linejoin:round;stroke-miterlimit:10;}
	.st53{fill:#FF0001;stroke:#000000;stroke-width:0.75;stroke-linecap:round;stroke-linejoin:round;stroke-miterlimit:10;}
</style>
<linearGradient id="SVGID_1_" gradientUnits="userSpaceOnUse" x1="607.2143" y1="1997.2142" x2="703.7389" y2="1997.2142" gradientTransform="matrix(6.123234e-17 -1 1 6.123234e-17 -1997.2142 857.2143)">
	<stop  offset="0" style="stop-color:#FFFFFF"/>
	<stop  offset="0.1597" style="stop-color:#E1ECF1"/>
	<stop  offset="0.4271" style="stop-color:#B4CFDC"/>
	<stop  offset="0.6659" style="stop-color:#93BACD"/>
	<stop  offset="0.8651" style="stop-color:#7FAEC3"/>
	<stop  offset="1" style="stop-color:#78A9C0"/>
</linearGradient>
<polygon class="st0" points="700,153.48 700,250 -700,250 -700,153.48 "/>
<g>
	<g>
		<polygon class="st51" points="90.09,149.92 64.53,149.92 64.53,150.48 89.6,150.48 89.78,150.48 		"/>
		<path class="st51" d="M87.5,150.48c-0.28,0.38-0.55,0.77-0.83,1.15c-1.06,1.47-2.12,2.94-3.19,4.41l0.37,5.55
			c0,0,0.04,0.69,0.59,1.11c0.36,0.28,0.74,0.3,1.09,0.32c0.61,0.03,1.12-0.13,1.47-0.29c0.1-0.05,0.23-0.13,0.36-0.26
			c0.62-0.63,0.32-1.76,0.19-2.81c-0.4-3.16-0.34-3.63-0.34-3.63c0.05-1.73,0.52-2.72,0.81-3.2c0.11-0.18,0.35-0.56,0.65-0.96
			c0.35-0.48,1.5-1.86,1.12-1.4l0,0"/>
		<path class="st51" d="M86.67,151.63c-12.54,1.09-26.47,1.62-41.57,1.12c-9.45-0.31-18.39-1-26.75-1.92c0,0-0.72,5.27,10.78,6.6
			s27.06,0.91,27.06,0.91s26.32-0.95,27.29-2.3"/>
		<polyline class="st51" points="52.92,158.38 52.92,169.34 49.08,169.34 44.32,158.33 		"/>
		<polyline class="st51" points="75.2,150.48 74.27,151.41 45.51,151.65 		"/>
		<polyline class="st51" points="45.55,152.76 45.48,150.95 45.01,150.95 45.05,151.63 45.1,152.75 		"/>
		<path class="st51" d="M45.05,151.63l-1.71,0.02c0,0-2.2-2.65-7.2-2.3c0,0,0.85,0.34,0.51,1.13l-18.29,0.34"/>
		<path class="st51" d="M39.92,149.7c0.61-30.98,7.68-72.2,7.68-72.2h0.98c-4.06,24.3-6.54,48.4-7.54,72.27
			c0,0.05-0.01,0.2-0.01,0.25"/>
		<polyline class="st51" points="48.44,78.31 50.22,78.78 59.69,91.56 67.57,108.87 77.12,138.29 		"/>
		<polyline class="st51" points="41.56,139.47 77.68,138.29 77.68,139.59 50.56,140.49 41.56,140.79 		"/>
		<circle class="st52" cx="41.82" cy="148.58" r="0.18"/>
		<line class="st52" x1="42" y1="148.67" x2="50.56" y2="140.49"/>
		<line class="st52" x1="49.91" y1="140.52" x2="41.7" y2="148.44"/>
		<line class="st52" x1="41.7" y1="148.72" x2="41.06" y2="149.26"/>
		<polyline class="st51" points="42.62,113.25 41.19,106.55 22.73,150.74 		"/>
		<line class="st51" x1="31.08" y1="150.59" x2="23.08" y2="149.9"/>
		<path class="st51" d="M42,150.59c0,0,6.64-1.04,7.57-1.6c0,0-0.79-5.1-1.14-6.46"/>
		<path class="st51" d="M48.33,142.04c0,0-0.12-0.79-0.26-1.47"/>
		<path class="st51" d="M51.42,151.6l-1.85-2.61c0,0,0.25,1.31,0.17,1.6c-0.03,0.13-0.09,0.24-0.19,0.31
			c-0.15,0.11-0.32,0.09-0.63,0.05c-0.91-0.1-1.09-0.07-1.23,0.02c-0.05,0.03-0.18,0.12-0.26,0.28c-0.06,0.14-0.06,0.28-0.05,0.34"
			/>
		<circle class="st51" cx="74.38" cy="140.31" r="0.22"/>
		<circle class="st51" cx="57.33" cy="140.79" r="0.22"/>
		<polyline class="st51" points="74.93,149.92 74.6,140.31 74.6,139.7 		"/>
		<line class="st51" x1="74.38" y1="140.53" x2="73.88" y2="149.92"/>
		<line class="st51" x1="73.88" y1="150.48" x2="73.88" y2="151.42"/>
		<line class="st51" x1="74.16" y1="140.31" x2="57.55" y2="140.79"/>
		<line class="st51" x1="57.15" y1="140.66" x2="56.86" y2="140.28"/>
		<line class="st51" x1="57.15" y1="140.92" x2="56.19" y2="151.56"/>
		<path class="st51" d="M84.27,154.95c0,0-28.43,3.63-58.22,0.53"/>
		<line class="st51" x1="87.3" y1="152.59" x2="86.39" y2="152.03"/>
		<line class="st51" x1="85.77" y1="155.65" x2="84.41" y2="154.76"/>
	</g>
	<g>
		<path class="st51" d="M319.04,150.34l7.65,1.55l-0.08,4.46c-35.5,3.56-73.47,0-73.47,0l0.29-3.89c0,0,0-1.76,2.44-1.37l32.6-0.74"
			/>
		<ellipse class="st51" cx="289.41" cy="150.62" rx="0.95" ry="0.73"/>
		<ellipse class="st51" cx="318.07" cy="150.18" rx="0.95" ry="0.73"/>
		<path class="st51" d="M290.36,150.62c0,0,5.7-0.01,11.84-0.06c6.74-0.06,14.01-0.17,14.92-0.38"/>
		<polyline class="st51" points="319.66,149.09 327.48,151.62 329.47,153.8 326.7,151.89 319.66,149.45 319.66,148.69 
			302.29,149.19 302.2,150.56 		"/>
		<path class="st51" d="M326.61,156.35v7.06c0.05,2.14,0.34,3.74,0.78,4.11c0.31,0.26,0.59,0.25,0.59,0.25s0.26-0.01,0.52-0.25
			c0.4-0.37,0.7-1.96,0.78-4.11c0.06-3.2,0.12-6.4,0.19-9.61"/>
		<path class="st51" d="M289.01,148.9h1.89c1.97-21.2,4.3-42.93,7.04-65.16c2.47-20.01,5.16-39.54,8.03-58.58
			c0.07-0.6,0.15-1.2,0.22-1.8h-1.43c-1.32,8.37-2.6,16.83-3.83,25.38c-1.03,7.12-2.03,14.29-2.99,21.53
			C294.35,97.18,291.4,123.41,289.01,148.9z"/>
		<polyline class="st51" points="305.98,25.17 318.24,25.29 319.01,141.99 		"/>
		<polyline class="st51" points="291.25,146.02 320.2,141.99 320.2,142.86 291.13,147.03 		"/>
		<path class="st51" d="M287,150.4c-14.29-6.44-44.66-6.3-44.66-6.3l11.4,7.52"/>
		<polygon class="st51" points="287.48,144.51 267.54,144.51 268.13,142.84 295.96,64.63 		"/>
		<path class="st51" d="M300.96,48.59l0.67-9.37v-0.7c-50.93,63.01-59.28,105.58-59.28,105.58l25.79-1.27"/>
		<line class="st51" x1="295.96" y1="64.63" x2="300.43" y2="52.3"/>
		<ellipse class="st52" cx="258.97" cy="145.88" rx="2.61" ry="1.09"/>
		<path class="st51" d="M258.97,146.97c0,0,16.18,1.55,21.93,3.54"/>
		<line class="st51" x1="304.07" y1="38.04" x2="318.31" y2="36.98"/>
		<line class="st51" x1="318.32" y1="37.85" x2="303.94" y2="38.94"/>
		<line class="st51" x1="304.78" y1="33.21" x2="316.84" y2="25.27"/>
		<line class="st51" x1="304.59" y1="34.47" x2="318.24" y2="25.63"/>
		<line class="st51" x1="302.26" y1="50.79" x2="318.4" y2="50.07"/>
		<line class="st51" x1="302.14" y1="51.69" x2="318.41" y2="50.79"/>
		<line class="st51" x1="300.43" y1="64.34" x2="318.5" y2="64.34"/>
		<line class="st51" x1="300.29" y1="65.34" x2="318.5" y2="64.96"/>
		<line class="st51" x1="298.01" y1="83.16" x2="318.62" y2="83.16"/>
		<line class="st51" x1="297.9" y1="84.08" x2="318.63" y2="83.91"/>
		<line class="st51" x1="295.76" y1="102.11" x2="318.75" y2="102.28"/>
		<line class="st51" x1="295.62" y1="103.27" x2="318.75" y2="103.06"/>
		<line class="st51" x1="293.6" y1="121.65" x2="318.88" y2="121.47"/>
		<line class="st51" x1="293.5" y1="122.64" x2="318.88" y2="122.34"/>
		<line class="st51" x1="291.69" y1="140.61" x2="319" y2="140.61"/>
		<line class="st51" x1="291.62" y1="141.34" x2="319" y2="141.34"/>
		<path class="st51" d="M298.1,150.62v-1.17h2.51c0,0,0.87-0.01,0.78,1.12"/>
		<path class="st51" d="M298.1,157.93v10.91c0,0,0.3,3.6,1.91,3.56s1.2,0,1.2,0l0.05-14.57"/>
	</g>
	<g>
		<path class="st51" d="M357.32,156.47c34.5,7.61,75.71,0.5,75.71,0.5l0.27-0.87c-6.3,0.84-13.08,1.53-20.3,2
			c-6.52,0.42-13.39,0.64-20.59,0.61C379.56,158.64,367.8,157.76,357.32,156.47z"/>
		<path class="st51" d="M356.74,155.64c0,0,51.88,3.84,55.52,2.5"/>
		<path class="st51" d="M357.32,156.47c0,0-2.61-3.64-3.97-7.65c24.19,3.53,51.56,4.41,80.68,3.83"/>
		<path class="st51" d="M433.29,156.09c0,0,0.59-2.05,0.96-5.06h1.46c0,0-1.37,3.69,1.53,7c2.9,3.31,2.4,2.9,2.4,2.9
			s1.16,1.94,0.62,3.48c-0.54,1.53-3.02,0.5-3.02,0.5s-0.99-0.37-2.11-1.61c-1.12-1.24-2.9-3.79-2.9-3.79"/>
		<polyline class="st51" points="433.02,156.96 432.24,159.51 419.12,158.72 		"/>
		<path class="st51" d="M381.88,150.58c1.55-18.41,8.66-66.77,15.11-111.57h1.24c-5.53,37.15-10.85,74.32-15.58,111.57"/>
		<path class="st51" d="M399.47,39.02h-1.24H399.47z"/>
		<path class="st51" d="M383.33,136.97l-14.88-0.49l-15.1-0.49c0,0-14.59-83.46,40.24-73.36l-6.96,14.9l-33.28,71.28
			c24.59,1.97,48.95,2.8,73.06,2.4c2.62-0.04,5.24-0.1,7.85-0.17L399.47,39.02c12.1,41.6,22.98,80.49,26.93,104.17l-41.91-0.95
			l14.21-103.22"/>
		<polyline class="st51" points="386.62,77.54 386.98,82.56 388.24,100.08 368.45,136.48 		"/>
		<line class="st53" x1="384.37" y1="82.36" x2="386.98" y2="82.56"/>
		<line class="st51" x1="353.34" y1="135.99" x2="382.06" y2="148.52"/>
		<path class="st51" d="M382.31,146.05c0,0-18.83,4.76-28.45,1.66"/>
		<polyline class="st51" points="384.5,142.24 384.5,143.56 426.34,144.3 426.4,143.19 426.4,151.21 424.23,145.67 401.15,145.36 
			400.77,151.18 		"/>
		<circle class="st52" cx="424.12" cy="145.83" r="0.41"/>
		<circle class="st52" cx="401.18" cy="145.39" r="0.41"/>
		<polygon class="st52" points="434.25,151.04 416.02,148.52 416.02,149.78 		"/>
		<path class="st52" d="M397.03,151.1c0,0-1.98-1.42-5.5-1.79c-3.52-0.37-8.61-0.79-8.61-0.79l-0.16,1.29c0,0,11.84,0.51,13.16,1.29
			"/>
		<path class="st52" d="M381.94,149.81l-2.87-0.15l0.08-1.51c0,0,2.21-0.05,2.9,0.61L381.94,149.81z"/>
		<path class="st51" d="M379.09,149.35c-2.97,0.14-6.05,0.21-9.24,0.21c-5.85-0.01-11.37-0.29-16.51-0.74"/>
		<polyline class="st52" points="414.55,92.41 403.57,95.16 403.85,96.21 414.77,93.24 		"/>
		<polyline class="st52" points="421.04,117.74 412.63,119.82 412.91,120.6 421.22,118.49 		"/>
		
			<rect x="393.97" y="137.64" transform="matrix(-1 -4.484159e-11 4.484159e-11 -1 804.611 279.1341)" class="st51" width="16.67" height="3.85"/>
		
			<rect x="370.41" y="142.65" transform="matrix(-0.9934 0.1144 -0.1144 -0.9934 762.294 245.3732)" class="st51" width="7.41" height="3.81"/>
		<path class="st51" d="M383.27,145.76c0,0,1.22,0.28,5.4-2.12"/>
		<path class="st51" d="M390.05,149.16c0,0-1.66-3.76-3.46-5.56"/>
		<path class="st51" d="M391.5,143.68c0,0-6.14,3.23-8.01,4.84"/>
		<path class="st51" d="M397.61,159.95l-0.98,16.45c0,0,0.16,1.7-1.13,1.65l-1.89,0.53c0,0-0.74,0.62-1.52-0.84
			c-0.78-1.46-3.25-16.88-3.25-17.82"/>
	</g>
	<g>
		<path class="st51" d="M207.55,149.95c-2.13,0.39-1.61,1.63-1.61,1.63c1.03,2.88,4.1,3.5,4.1,3.5c-7.26,2.54-63.09,1.12-64.48,0.87
			c-1.39-0.25-1.97-1.2-1.97-1.2s-0.97-1.97-1.18-2.5c-0.21-0.54-0.19-0.39-0.58-0.95c-0.39-0.56,0-1.05,0-1.05
			c21.36,0.25,42.72,0.5,64.09,0.75"/>
		<path class="st51" d="M141.68,150.94c21.41,0.16,42.81,0.33,64.22,0.49"/>
		<path class="st52" d="M141.83,150.24c-8.32-0.57-16.63-1.14-24.95-1.71c8.26,0.8,16.53,1.6,24.79,2.4
			C141.73,150.7,141.78,150.47,141.83,150.24z"/>
		<path class="st51" d="M172.13,150.61c1.14-38.6,6.68-74.78,20.03-106.67"/>
		<path class="st51" d="M192.16,43.94l1.06-0.03c-13.35,31.89-18.88,68.08-20.03,106.67"/>
		<path class="st51" d="M192.87,44.76l6.17,0.33c0,0,17.76,12.98,14.04,92.33l-21.78-0.39c0,0-8.5-0.25-12.66,5.77
			c-4.16,6.02-3.72,7.16-3.72,7.16h-1.71"/>
		<polygon class="st51" points="179.69,149.25 211.17,149.95 211.17,149.6 179.69,148.71 		"/>
		<line class="st51" x1="179.69" y1="150.68" x2="179.69" y2="149.25"/>
		<polyline class="st51" points="207.28,153.61 214,154.21 214,154.75 208,154.18 		"/>
		<path class="st51" d="M210.03,154.37l0.66,9.02c0,0,0.66,2.01,1.94,2.05c1.28,0.04,1.76,0,1.76,0s0.48,0.04,0.43-1.16
			s-0.83-9.54-0.83-9.54"/>
		<polyline class="st51" points="214,154.21 213.86,152.74 209.83,152.74 209.93,153.85 		"/>
		<line class="st51" x1="206.75" y1="153.03" x2="209.83" y2="153.03"/>
		<line class="st51" x1="207.08" y1="153.42" x2="209.89" y2="153.42"/>
		<polyline class="st51" points="181.83,139.68 213.2,139.68 214.07,137.95 184.89,138.16 		"/>
		<path class="st51" d="M172.4,143.5c0,0-0.39,4.55-1.35,5.61c0,0-0.87,0.98-1.91,1.02c-1.04,0.05-26.47-0.82-26.47-0.82
			S176.4,84.68,177.7,83.1h0.51l-1.75,18.29"/>
		<path class="st51" d="M181.65,75.76c0,0-3.28,6.07-3.76,7.33"/>
		<polyline class="st51" points="178.09,150.67 178.09,149.4 178.76,149.4 178.76,150.67 		"/>
		<path class="st51" d="M175.59,156.56l1.59,11.16c0,0,0.6,1.78,1.74,1.88s3.1,0,3.1,0l-0.81-13.03"/>
		<path class="st51" d="M181.45,76.13l4.09-0.34l0.32-0.03v0.63l-4.45,0.31l-0.76,25.81v0.71l-2.23,46.1
			c2.38-24.3,4.75-48.61,7.13-72.91"/>
		<polyline class="st51" points="177.3,102.8 180.65,102.52 180.65,103.23 177.2,103.43 		"/>
		<path class="st51" d="M185.63,75.78c0.86-6.22,1.72-12.45,2.58-18.67"/>
		<path class="st51" d="M188.6,53.03c0,0-0.31-3.24,1.01-8.58c0,0-49.69,7.9-71.94,103.14c0,0,43.58-3.37,53.82-12.93l2.33-12.07"/>
	</g>
</g>
</svg>
