<?xml version="1.0" encoding="utf-8"?>
<!-- Generator: Adobe Illustrator 24.0.2, SVG Export Plug-In . SVG Version: 6.00 Build 0)  -->
<svg version="1.1" id="Capa_1" xmlns="http://www.w3.org/2000/svg" xmlns:xlink="http://www.w3.org/1999/xlink" x="0px" y="0px"
	 viewBox="0 0 700 250" style="enable-background:new 0 0 700 250;" xml:space="preserve">
<style type="text/css">
	.st0{fill:url(#SVGID_1_);}
	.st1{display:none;}
	
		.st2{display:inline;fill:none;stroke:#000000;stroke-width:1.112;stroke-linecap:round;stroke-linejoin:round;stroke-miterlimit:10;}
	
		.st3{display:inline;fill:#FF0001;stroke:#000000;stroke-width:1.112;stroke-linecap:round;stroke-linejoin:round;stroke-miterlimit:10;}
	.st4{display:inline;stroke:#000000;stroke-width:1.112;stroke-linecap:round;stroke-linejoin:round;stroke-miterlimit:10;}
	.st5{fill:none;stroke:#D4D1CD;stroke-width:11.6425;stroke-miterlimit:10;}
	.st6{fill:#D4D1CD;}
	.st7{fill:none;stroke:#000000;stroke-width:1.0187;stroke-linecap:round;stroke-linejoin:round;}
	.st8{fill:#F1E1C0;stroke:#D90001;stroke-width:2.9106;stroke-miterlimit:10;}
	.st9{fill:#D90001;}
	.st10{display:inline;}
	.st11{fill:#E5E5E5;stroke:#E5E5E5;stroke-width:4.2874;stroke-linecap:round;stroke-miterlimit:10;}
	.st12{fill:none;stroke:#000000;stroke-width:3.2156;stroke-linejoin:round;stroke-miterlimit:10;}
	.st13{fill:none;stroke:#000000;stroke-width:3.2156;stroke-linecap:round;stroke-linejoin:round;}
	.st14{fill:none;stroke:#000000;stroke-width:3.2156;stroke-linecap:round;stroke-linejoin:round;stroke-dasharray:8.5975,8.5975;}
	.st15{fill:none;stroke:#000000;stroke-width:3.2156;stroke-linecap:round;stroke-linejoin:round;stroke-dasharray:8.6561,8.6561;}
	.st16{fill:none;stroke:#000000;stroke-width:3.2156;stroke-linecap:round;stroke-linejoin:round;stroke-dasharray:8.6197,8.6197;}
	.st17{fill:none;stroke:#000000;stroke-width:3.2156;stroke-linecap:round;stroke-linejoin:round;stroke-dasharray:8.6307,8.6307;}
	.st18{fill:none;stroke:#000000;stroke-width:3.2156;stroke-linecap:round;stroke-linejoin:round;stroke-dasharray:8.367,8.367;}
	.st19{fill:none;stroke:#000000;stroke-width:3.2156;stroke-linecap:round;stroke-linejoin:round;stroke-dasharray:8.5369,8.5369;}
	.st20{fill:none;stroke:#000000;stroke-width:3.2156;stroke-linecap:round;stroke-linejoin:round;stroke-dasharray:8.8668,8.8668;}
	.st21{fill:none;stroke:#000000;stroke-width:3.2156;stroke-linecap:round;stroke-linejoin:round;stroke-dasharray:8.585,8.585;}
	
		.st22{display:inline;fill:none;stroke:#000000;stroke-width:3.2156;stroke-linecap:round;stroke-linejoin:round;stroke-miterlimit:10;}
	.st23{display:inline;fill:none;stroke:#000000;stroke-width:3.2156;stroke-linecap:round;stroke-linejoin:round;}
	
		.st24{display:inline;fill:none;stroke:#D90001;stroke-width:3.2156;stroke-linecap:round;stroke-linejoin:round;stroke-miterlimit:10;}
	.st25{display:none;fill:#78A9C0;}
	.st26{fill:#E5E5E5;stroke:#E5E5E5;stroke-width:2.0195;stroke-linecap:round;stroke-miterlimit:10;}
	.st27{fill:none;stroke:#000000;stroke-width:1.5146;stroke-linejoin:round;stroke-miterlimit:10;}
	.st28{fill:none;stroke:#000000;stroke-width:1.5146;stroke-linecap:round;stroke-linejoin:round;}
	.st29{fill:none;stroke:#000000;stroke-width:1.5146;stroke-linecap:round;stroke-linejoin:round;stroke-dasharray:4.0496,4.0496;}
	.st30{fill:none;stroke:#000000;stroke-width:1.5146;stroke-linecap:round;stroke-linejoin:round;stroke-dasharray:4.0773,4.0773;}
	.st31{fill:none;stroke:#000000;stroke-width:1.5146;stroke-linecap:round;stroke-linejoin:round;stroke-dasharray:4.0601,4.0601;}
	.st32{fill:none;stroke:#000000;stroke-width:1.5146;stroke-linecap:round;stroke-linejoin:round;stroke-dasharray:4.0653,4.0653;}
	.st33{fill:none;stroke:#000000;stroke-width:1.5146;stroke-linecap:round;stroke-linejoin:round;stroke-dasharray:3.9411,3.9411;}
	.st34{fill:none;stroke:#000000;stroke-width:1.5146;stroke-linecap:round;stroke-linejoin:round;stroke-dasharray:4.0211,4.0211;}
	.st35{fill:none;stroke:#000000;stroke-width:1.5146;stroke-linecap:round;stroke-linejoin:round;stroke-dasharray:4.1765,4.1765;}
	.st36{fill:none;stroke:#000000;stroke-width:1.5146;stroke-linecap:round;stroke-linejoin:round;stroke-dasharray:4.0438,4.0438;}
	
		.st37{display:inline;fill:none;stroke:#000000;stroke-width:1.5146;stroke-linecap:round;stroke-linejoin:round;stroke-miterlimit:10;}
	.st38{display:inline;fill:none;stroke:#000000;stroke-width:1.5146;stroke-linecap:round;stroke-linejoin:round;}
	
		.st39{display:inline;fill:none;stroke:#D90001;stroke-width:1.5146;stroke-linecap:round;stroke-linejoin:round;stroke-miterlimit:10;}
	
		.st40{display:inline;fill:none;stroke:#000000;stroke-width:1.9478;stroke-linecap:round;stroke-linejoin:round;stroke-miterlimit:10;}
	
		.st41{display:inline;fill:#FF0001;stroke:#000000;stroke-width:1.9478;stroke-linecap:round;stroke-linejoin:round;stroke-miterlimit:10;}
	.st42{display:inline;stroke:#000000;stroke-width:1.9478;stroke-linecap:round;stroke-linejoin:round;stroke-miterlimit:10;}
	.st43{fill:none;stroke:#000000;stroke-width:2.0558;stroke-linecap:round;stroke-linejoin:round;stroke-miterlimit:10;}
	.st44{stroke:#000000;stroke-width:2.0558;stroke-linecap:round;stroke-linejoin:round;stroke-miterlimit:10;}
	.st45{fill:#FF0001;stroke:#000000;stroke-width:2.0558;stroke-linecap:round;stroke-linejoin:round;stroke-miterlimit:10;}
	.st46{fill:url(#SVGID_2_);}
	.st47{clip-path:url(#SVGID_4_);}
	.st48{fill:#D90001;stroke:#D90001;stroke-width:0.75;stroke-linecap:round;stroke-linejoin:round;}
	.st49{fill:none;stroke:#000000;stroke-width:0.35;stroke-linecap:round;stroke-linejoin:round;}
	.st50{fill:url(#SVGID_7_);}
	.st51{fill:none;stroke:#000000;stroke-width:0.75;stroke-linecap:round;stroke-linejoin:round;stroke-miterlimit:10;}
	.st52{stroke:#000000;stroke-width:0.75;stroke-linecap:round;stroke-linejoin:round;stroke-miterlimit:10;}
	.st53{fill:#FF0001;stroke:#000000;stroke-width:0.75;stroke-linecap:round;stroke-linejoin:round;stroke-miterlimit:10;}
</style>
<linearGradient id="SVGID_1_" gradientUnits="userSpaceOnUse" x1="1307.2142" y1="1997.2142" x2="1403.7389" y2="1997.2142" gradientTransform="matrix(6.123234e-17 -1 1 6.123234e-17 -1297.2142 1557.2142)">
	<stop  offset="0" style="stop-color:#FFFFFF"/>
	<stop  offset="0.1597" style="stop-color:#E1ECF1"/>
	<stop  offset="0.4271" style="stop-color:#B4CFDC"/>
	<stop  offset="0.6659" style="stop-color:#93BACD"/>
	<stop  offset="0.8651" style="stop-color:#7FAEC3"/>
	<stop  offset="1" style="stop-color:#78A9C0"/>
</linearGradient>
<polygon class="st0" points="1400,153.48 1400,250 0,250 0,153.48 "/>
<g>
	<g>
		<path class="st51" d="M615.37,150.56l2.71,2.71c0,0,0.74,1.82,5.79,1.98c1.98,0.07,9.87,0.41,18.89,0.68
			c13.92,0.41,30.53,0.63,32.21-0.68l-0.02-2.78"/>
		<path class="st51" d="M642.86,155.93c0.57,2.15,1.14,4.29,1.71,6.44c0,0,0.37,2.65,1.92,2.69c1.55,0.04,3.74,0,3.74,0
			c-0.77-3-1.54-5.99-2.32-8.99"/>
		<path class="st51" d="M643.68,150.74c-0.01,0.13-0.01,0.31,0.09,0.47c0.22,0.32,0.76,0.3,0.91,0.3c0.81-0.01,7.93,0.23,17.82,0.58
			c0.03,0,0.11,0,0.2-0.05c0.11-0.07,0.14-0.18,0.14-0.2c4.04,0.1,8.08,0.2,12.12,0.3l-0.02,0.68c-8.14-0.06-16.44-0.21-24.9-0.49
			c-12.12-0.39-23.92-0.99-35.36-1.76c-0.12-0.15-0.22-0.33-0.17-0.49c0,0,0.03-0.12,0.14-0.21
			C614.92,149.63,630.62,150.21,643.68,150.74z"/>
		<path class="st51" d="M674.96,155.25l1.3,5.65c0,0,0.1,1.12,1.26,1.28s2.09,0.19,2.09,0.19l-1.37-7.72c0,0-0.12-1.05-0.87-1.25
			l-0.09-1.77h-2.32v0.5"/>
		<path class="st51" d="M641.01,64.54c-11.89,47.8-7.43,75.94-7.43,75.94h-2.09c0,0-4.32-30.08,8.46-76.25L641.01,64.54z"/>
		<path class="st51" d="M633.59,140.48c18.64,4.51,38.47-0.21,38.47-0.21s-22.79-67.23-31.05-75.73"/>
		<polyline class="st51" points="640.19,64.3 640.35,63.68 641.01,63.86 640.87,64.5 		"/>
		<line class="st51" x1="631.86" y1="140.48" x2="631.52" y2="150.27"/>
		<line class="st51" x1="633.13" y1="140.48" x2="632.85" y2="150.27"/>
		<line class="st51" x1="640.37" y1="141.74" x2="633.13" y2="141.74"/>
		<polyline class="st51" points="633.07,142.7 672.06,143.66 672.06,142.43 654.67,142.37 		"/>
		<path class="st51" d="M669.63,140.77c0,0,0.88,1.08,2.44,1.66"/>
		<line class="st51" x1="674.96" y1="151.63" x2="662.4" y2="151.31"/>
		<path class="st51" d="M672.73,151.57c0.03-0.25-0.06-0.48-0.23-0.58c-0.11-0.06-0.23-0.06-0.26-0.06c-0.02,0-0.18,0.01-0.31,0.12
			c-0.21,0.18-0.19,0.45-0.19,0.49"/>
		<path class="st51" d="M672.56,150.03c0,0.19-0.14,0.36-0.32,0.4c-0.03,0.01-0.06,0.01-0.09,0.01c-0.22,0-0.41-0.18-0.41-0.41
			s0.18-0.41,0.41-0.41S672.56,149.81,672.56,150.03z"/>
		<line class="st51" x1="672.25" y1="150.94" x2="672.24" y2="150.43"/>
		<path class="st51" d="M671.97,144.07c0,0.06-0.01,0.12-0.04,0.17c-0.05,0.11-0.16,0.19-0.28,0.22c-0.03,0.01-0.06,0.01-0.09,0.01
			c-0.22,0-0.41-0.18-0.41-0.41c0-0.22,0.18-0.41,0.41-0.41C671.79,143.66,671.97,143.85,671.97,144.07z"/>
		<line class="st51" x1="672.54" y1="149.91" x2="671.93" y2="144.25"/>
		<line class="st51" x1="671.2" y1="144.25" x2="671.75" y2="150.03"/>
		<path class="st51" d="M633.79,147.96c-0.16,0.13-0.38,0.13-0.52,0.01c-0.02-0.02-0.04-0.04-0.06-0.06
			c-0.14-0.18-0.1-0.44,0.08-0.58c0.18-0.15,0.45-0.12,0.59,0.05C634.01,147.55,633.97,147.81,633.79,147.96z"/>
		<path class="st51" d="M638.29,143.61c-0.05,0.04-0.11,0.07-0.17,0.08c-0.12,0.03-0.26,0.01-0.35-0.07
			c-0.02-0.02-0.04-0.04-0.06-0.06c-0.14-0.18-0.1-0.44,0.08-0.58c0.18-0.15,0.45-0.12,0.59,0.05
			C638.51,143.21,638.47,143.47,638.29,143.61z"/>
		<line class="st51" x1="633.88" y1="147.86" x2="638.12" y2="143.7"/>
		<line class="st51" x1="637.67" y1="143.12" x2="633.28" y2="147.32"/>
		<path class="st51" d="M649.11,143.98c-0.05,0.04-0.11,0.07-0.17,0.08c-0.12,0.03-0.26,0.01-0.35-0.07
			c-0.02-0.02-0.04-0.04-0.06-0.06c-0.14-0.18-0.1-0.44,0.08-0.58c0.18-0.15,0.45-0.12,0.59,0.05S649.29,143.84,649.11,143.98z"/>
		<line class="st51" x1="648.43" y1="143.71" x2="648.43" y2="151.6"/>
		<path class="st52" d="M662.08,151.63h-1.15c-0.18,0-0.32-0.14-0.32-0.32v-0.03c0-0.18,0.14-0.32,0.32-0.32h1.15
			c0.18,0,0.32,0.14,0.32,0.32v0.03C662.4,151.48,662.26,151.63,662.08,151.63z"/>
	</g>
	<g>
		<path class="st51" d="M548.24,151.45l-5.81-0.1v0.69v0.09l17.83,0.6v-0.39c-4.79-0.03-9.58-0.06-14.38-0.09"/>
		<line class="st51" x1="553.18" y1="152.4" x2="560.26" y2="152.53"/>
		<path class="st51" d="M558.46,152.67v0.49c0,0-52.11,0.68-55.66-0.43l0.17-0.21c0,0,14.98,0.21,29.39,0.32
			C544.93,152.94,557.07,152.95,558.46,152.67z"/>
		<path class="st51" d="M532.45,152.85c-0.5-0.15-0.5-0.67-0.5-0.67l-21.76,0.45"/>
		<path class="st51" d="M505.52,152.56c-0.52-0.38-0.99-0.58-1.2-0.48c-0.13,0.06-0.17,0.14-0.17,0.14s-0.04,0.07-0.01,0.32l0,0"/>
		<path class="st51" d="M514.64,152.68l0.06-39.44c0,0,0.05-0.33,0.49-0.31s0.49,0.31,0.49,0.31l0,4.51l-0.03,34.94"/>
		<path class="st51" d="M515.69,147.81c15.72-3.04,31.44-6.09,47.16-9.13c0.02-0.01,0.27-0.12,0.47,0.02
			c0.13,0.09,0.16,0.23,0.19,0.31c0.01,0.03,0.08,0.35-0.07,0.49c-0.09,0.08-0.26,0.12-0.26,0.12l0,0c-15.83,3-31.66,6-47.48,9"/>
		<path class="st51" d="M514.65,148.06l-5.7,1.09c-0.03,0.01-0.21,0.05-0.29,0.21c-0.06,0.11-0.04,0.22-0.03,0.3
			c0.01,0.09,0.03,0.18,0.09,0.24c0.13,0.12,0.34,0.05,0.35,0.04c1.85-0.36,3.71-0.71,5.56-1.07"/>
		<path class="st51" d="M515.69,121.35c2.16-8.11,4.32-16.22,6.48-24.34c0.02-0.04,0.1-0.22,0.02-0.42
			c-0.08-0.22-0.27-0.31-0.34-0.33c-0.05-0.02-0.22-0.08-0.4-0.01c-0.25,0.1-0.3,0.37-0.31,0.4c-1.82,7.04-3.64,14.07-5.46,21.11"/>
		<path class="st51" d="M514.64,122.2c-2.24,8.8-4.48,17.6-6.72,26.39c-0.01,0.02-0.09,0.21,0.01,0.39c0.08,0.14,0.21,0.18,0.28,0.2
			c0.06,0.02,0.19,0.06,0.32,0.01c0.14-0.06,0.23-0.21,0.25-0.38c1.97-7.68,3.94-15.37,5.91-23.05"/>
		<polyline class="st51" points="561.99,138.63 555.64,132.03 522.13,97.17 		"/>
		<path class="st51" d="M555.64,132.03c-3.75,3.41-7.49,6.82-11.24,10.23"/>
		<line class="st51" x1="548.71" y1="124.82" x2="526.27" y2="145.76"/>
		<line class="st51" x1="542.16" y1="118" x2="515.69" y2="142.5"/>
		<line class="st51" x1="514.66" y1="143.55" x2="508.62" y2="149.2"/>
		<line class="st51" x1="535.42" y1="110.99" x2="515.69" y2="129.54"/>
		<line class="st51" x1="528.74" y1="104.05" x2="517.45" y2="114.72"/>
		<path class="st51" d="M558.29,153.17v1.53c-42.59,4.61-53.88-0.19-53.88-0.19l-1.61-1.78"/>
		<path class="st51" d="M530.87,156.64l-0.25,6.59c0,0-0.28,2.58-2.23,2.73h-0.78l-0.5-9.32"/>
		<path class="st51" d="M559.15,152.34l0.68-0.41c0,0,0.29-0.19,0.62,0.21s4.73,7.4,4.73,7.4l-0.99,0.29c0,0-1.24,0.37-1.85-0.31
			c-0.61-0.68-3.97-4.27-3.97-4.27l-0.09-0.54c-8.28,0.68-17.27,1.09-26.89,1.05c-9.66-0.03-18.69-0.5-26.99-1.24"/>
		<path class="st51" d="M559.71,152.72l0.43,0.76c0,0,0.14,0.31-0.22,0.56l-1.64,0.67"/>
		<circle class="st52" cx="548.53" cy="143" r="0.24"/>
		<line class="st51" x1="554.48" y1="152.31" x2="548.71" y2="142.83"/>
		<polyline class="st51" points="530.89,152.2 530.93,149.87 527.15,149.87 527.1,152.28 		"/>
		
			<rect x="548.22" y="151.29" transform="matrix(-1 -4.461732e-11 4.461732e-11 -1 1099.9392 303.0551)" class="st52" width="3.51" height="0.48"/>
		<circle class="st52" cx="534.15" cy="145.68" r="0.24"/>
		<line class="st52" x1="533.82" y1="152.85" x2="533.9" y2="145.52"/>
		<path class="st52" d="M548.53,142.75c-4.79,0.9-9.59,1.79-14.38,2.69"/>
	</g>
	<g>
		<path class="st51" d="M424.04,147.75c0,0-29.78-0.46-32.87-1.88c0,0-0.4-0.21-0.44,0c-0.04,0.21-0.35,0.33,0,0.46
			c0.35,0.13,13.7,4.38,33.31,2.96V147.75z"/>
		<path class="st51" d="M440.36,139.55c0.66,0.09,0.81-0.21,0.81-0.21c0.04-0.07,0.1-0.18,0.16-0.32c0.07-0.19,0.13-0.33,0.13-0.5
			c0-0.26-0.14-0.44-0.25-0.59c-0.23-0.3-0.51-0.46-0.69-0.53c-5.01-2.23-10.02-4.47-15.03-6.7c0,0-10.08-4.1-11.38-4.44
			s-2.37-0.5-2.37-0.5s-2.02-0.06-2.44,0.74c-0.42,0.8,0.25,1.63,0.25,1.63l0.39-1.19c0.27-0.86,2.16-0.67,2.16-0.67
			c4.07,0.42,24.78,10.23,28.24,11.88c0.32,0.15,0.49,0.23,0.49,0.23l-0.2,0.72c-0.1,0.01-0.19,0.02-0.29,0.03"/>
		<path class="st51" d="M440.18,137.24c0,0-1.02-18.82-1.12-20.23c-0.09-1.41,0.44-4.4,0.5-4.88c0.06-0.48,0.08-0.69,0-0.92
			c-0.08-0.23-0.52-0.52-0.52-0.52l-4.54-2.98c0,0-0.01-0.45-0.24-0.65c0,0-15.03,3.34-23.43,18.74"/>
		<path class="st51" d="M410.48,126.42c0,0-6.96,17.76-6.51,19.96c0,0,0.01,0.45,0.15,0.69c0.14,0.24,1.64,0.22,2.16-0.23
			c0.52-0.45,0.78-0.66,0.78-0.66c7.13,0.02,28.97-1.97,28.97-1.97l4.32-4.47l0-1.61"/>
		<path class="st51" d="M435.07,108.08c0,0-7.14,3.03-8.82,5.2s-7.05,9.8-10.3,19.24c-3.25,9.44-8.88,13.67-8.88,13.67"/>
		<line class="st51" x1="439.61" y1="111.41" x2="432.55" y2="109.23"/>
		<line class="st51" x1="439.14" y1="115.22" x2="428.55" y2="111.41"/>
		<line class="st51" x1="439.2" y1="119.48" x2="424.94" y2="115.05"/>
		<line class="st51" x1="439.49" y1="124.67" x2="421.59" y2="120.32"/>
		<line class="st51" x1="439.82" y1="130.71" x2="418.23" y2="127.1"/>
		<path class="st51" d="M417.03,149.58l-0.67,7.82h4.56c0,0,0.3,0.04,0.3,0.32c0,0.28-0.28,0.28-0.28,0.28c-3.59,0-7.17,0-10.76,0
			c-0.02,0-0.17,0.02-0.28-0.09c-0.02-0.02-0.11-0.11-0.1-0.24c0.01-0.14,0.12-0.24,0.24-0.27c0.08-0.02,0.16-0.01,0.19,0
			c1.7,0,3.41,0,5.11,0c-0.09-2.61-0.17-5.22-0.26-7.82"/>
		<line class="st51" x1="414.12" y1="147.61" x2="414.12" y2="122.01"/>
		<path class="st51" d="M322.8,147.92c0,0-25.5,0.63-28.19-0.68c-0.23,0.29-0.48,0.69-0.41,1.1c0.22,1.33,3.64,1.62,5.86,1.73
			c6.8,0.35,16.95-0.22,22.79-0.61C322.83,148.95,322.82,148.43,322.8,147.92z"/>
		<path class="st51" d="M312.43,150.07l-0.67,7.82h4.56c0,0,0.3,0.04,0.3,0.32c0,0.28-0.28,0.28-0.28,0.28c-3.59,0-7.17,0-10.76,0
			c-0.02,0-0.17,0.02-0.28-0.09c-0.02-0.02-0.11-0.11-0.1-0.24c0.01-0.14,0.12-0.24,0.24-0.27c0.08-0.02,0.16-0.01,0.19,0
			c1.7,0,3.41,0,5.11,0c-0.09-2.61-0.17-5.22-0.26-7.82"/>
	</g>
	<path class="st51" d="M306.97,25.22l-0.72,0.88c0,0-2.59-3.3-6.13-6.1c-2.31-1.82-5.03-3.43-7.69-3.76
		c-6.75-0.83-11.45,2.62-13,4.15c-0.42,0.42-1.09,1.07-1.81,2.04c-4.54,6.19-2.85,14.71-2.55,16.2c0.6,3.02,1.85,6.21,2.17,7.01
		c0.46,1.18,0.75,1.9,1.26,2.9c1.11,2.16,2.61,4.99,5.64,6.67c0.9,0.5,1.78,0.81,2.58,1.01l-0.19,0.83c0,0-1.18,0.16-3.11-1.02
		c-3.65-2.23-5.61-5.33-7.07-8.3c-0.46-0.94-2.44-5.09-2.95-11.14c-0.28-3.32-0.54-6.49,0.75-10.09c2.08-5.79,6.82-8.93,9-10.16
		c1.78-0.63,6.28-1.96,11.68-0.54C302.52,17.85,306.23,23.94,306.97,25.22z"/>
	<path class="st51" d="M299.41,19.65c-0.28,0.11-0.69,0.27-1.18,0.48c-3.65,1.6-6.96,3.72-8.24,5.71c-2.35,3.66-4.09,9.1-4.56,13.74
		c-0.47,4.64-0.24,13.83,0.79,17.67c1.03,3.84,0.47,3.03,0.47,3.03c7.98,29.26,15.97,58.52,23.95,87.78
		c-1.58-40.42-3.17-80.83-4.75-121.25"/>
	<path class="st51" d="M278.5,48.55c0,0,3.83,2.25,7.21,2.38"/>
	<path class="st51" d="M274.88,37.63c0,0,7.42,5.11,10.31,5.31"/>
	<path class="st51" d="M310.9,148.07L287.17,38.26c-0.34-1.21-0.67-2.42-1.01-3.63"/>
</g>
</svg>
